<svg width="23" height="23" viewBox="0 0 23 23" fill="none" xmlns="http://www.w3.org/2000/svg">
<path d="M6.49784 13.1384L5.13117 19.0564C5.08885 19.2356 5.10155 19.4234 5.16762 19.5953C5.23369 19.7671 5.35006 19.9151 5.50152 20.0198C5.65298 20.1245 5.83249 20.1811 6.01662 20.1822C6.20075 20.1833 6.38092 20.1288 6.53362 20.0259L11.528 16.6964L16.5223 20.0259C16.6785 20.1297 16.8628 20.1831 17.0503 20.1789C17.2378 20.1748 17.4195 20.1134 17.5711 20.0029C17.7226 19.8924 17.8367 19.7382 17.8979 19.5609C17.9592 19.3837 17.9647 19.1919 17.9137 19.0115L16.2361 13.1412L20.3967 9.39701C20.5299 9.27702 20.6251 9.12061 20.6704 8.94712C20.7157 8.77362 20.7092 8.59065 20.6516 8.42083C20.594 8.25102 20.4879 8.1018 20.3464 7.99164C20.2049 7.88148 20.0343 7.81521 19.8555 7.80102L14.6264 7.3846L12.3636 2.37558C12.2914 2.21429 12.1741 2.07733 12.0258 1.98123C11.8776 1.88512 11.7046 1.83398 11.528 1.83398C11.3513 1.83398 11.1783 1.88512 11.0301 1.98123C10.8818 2.07733 10.7645 2.21429 10.6924 2.37558L8.42954 7.3846L3.20039 7.8001C3.0247 7.81402 2.85673 7.87826 2.7166 7.98514C2.57646 8.09201 2.47008 8.237 2.41018 8.40275C2.35029 8.56851 2.33941 8.748 2.37886 8.91977C2.41831 9.09154 2.50641 9.24831 2.63262 9.37133L6.49784 13.1384V13.1384ZM9.11471 9.17045C9.27843 9.15755 9.43567 9.10085 9.56994 9.00628C9.70421 8.91171 9.81056 8.78276 9.87785 8.63295L11.528 4.98144L13.1781 8.63295C13.2454 8.78276 13.3517 8.91171 13.486 9.00628C13.6202 9.10085 13.7775 9.15755 13.9412 9.17045L17.5845 9.45938L14.5842 12.1597C14.3237 12.3945 14.22 12.7559 14.3154 13.0935L15.4647 17.1155L12.0379 14.8307C11.8875 14.7298 11.7105 14.6758 11.5293 14.6758C11.3482 14.6758 11.1711 14.7298 11.0207 14.8307L7.43984 17.2183L8.40294 13.0485C8.43825 12.8952 8.43351 12.7353 8.38918 12.5843C8.34484 12.4333 8.2624 12.2962 8.14978 12.1863L5.36323 9.46947L9.11471 9.17045V9.17045Z" fill="#F3CD03"/>
</svg>
